<svg width="70" height="70" viewBox="0 0 70 70" fill="none" xmlns="http://www.w3.org/2000/svg">
<path d="M50.5554 23.9944C48.4713 22.6826 46.7539 20.8636 45.5637 18.7077C44.3735 16.5518 43.7494 14.1293 43.7498 11.6667H7.62207C7.27312 11.672 6.92649 11.7244 6.59151 11.8222L34.6887 39.8028L50.5554 23.9944Z" fill="#753EDA"/>
<path d="M58.3332 26.25C57.0174 26.2386 55.7092 26.0489 54.4443 25.6861L37.5082 42.5639C36.7796 43.2882 35.794 43.6948 34.7666 43.6948C33.7392 43.6948 32.7535 43.2882 32.0249 42.5639L3.88879 14.5833C3.80253 14.9004 3.7568 15.227 3.75268 15.5556V54.4445C3.75268 55.4759 4.1624 56.465 4.89171 57.1943C5.62102 57.9236 6.61017 58.3333 7.64157 58.3333H62.086C63.1174 58.3333 64.1066 57.9236 64.8359 57.1943C65.5652 56.465 65.9749 55.4759 65.9749 54.4445V24.0917C63.6784 25.5088 61.0318 26.2564 58.3332 26.25ZM10.3055 54.4445H7.60268V51.6639L21.7388 37.6445L24.4805 40.3861L10.3055 54.4445ZM62.0471 54.4445H59.3249L45.1499 40.3861L47.8916 37.6445L62.0277 51.6639L62.0471 54.4445Z" fill="#753EDA"/>
<path d="M58.3333 21.3889C63.7028 21.3889 68.0556 17.0361 68.0556 11.6667C68.0556 6.29725 63.7028 1.94446 58.3333 1.94446C52.9639 1.94446 48.6111 6.29725 48.6111 11.6667C48.6111 17.0361 52.9639 21.3889 58.3333 21.3889Z" fill="#753EDA"/>
<path d="M59.9238 16H57.9434V9.69531L55.998 10.2637V8.76367L59.7422 7.46875H59.9238V16Z" fill="white"/>
</svg>
