<svg width="180" height="40" viewBox="0 0 180 40" fill="none" xmlns="http://www.w3.org/2000/svg">
<path d="M0 23.0733V16.84C0 13.59 1.81009 11.84 4.84486 11.84C7.78542 11.84 9.46262 13.59 9.56692 16.7766H6.78617C6.7172 15.1866 6.10654 14.515 4.83813 14.515C3.5714 14.515 2.86991 15.2083 2.86991 16.8516V23.085C2.86991 24.7216 3.59327 25.4233 4.88523 25.4233C6.22093 25.4233 6.94598 24.73 6.94598 23.1383V21.6133H4.74897V19.1716H9.66112V23.1166C9.59383 26.3 7.82411 28.0666 4.8415 28.0666C1.8572 28.0666 0 26.3 0 23.075V23.0733ZM18.4626 24.9566H14.7516L14.1174 27.8133H11.2307L15.1234 12.13H18.1043L21.9936 27.7916H19.1069L18.4626 24.9566ZM17.8974 22.3383L17.2632 19.4266C17.0378 18.35 16.7871 16.6266 16.6273 15.5716H16.56C16.4237 16.6233 16.1731 18.35 15.9477 19.4266L15.3151 22.3383H17.8974ZM37.2011 12.1166V27.7916H34.4658V22.8933C34.5331 21.0566 34.6004 19.2566 34.6912 17.4933L34.5785 17.45C34.1243 18.7483 33.6028 20.1616 33.1065 21.5716L32.0434 24.35H29.2794L28.2179 21.5716C27.7183 20.1616 27.2204 18.7483 26.746 17.45L26.6333 17.4933C26.7224 19.2616 26.7897 21.055 26.8587 22.8933V27.7933H24.1402V12.1166H26.9478L29.5267 18.255C29.8649 19.0833 30.4082 20.5166 30.6135 21.1666H30.6993C30.9045 20.5166 31.468 19.0883 31.8095 18.255L34.3733 12.1166H37.2011ZM46.5948 24.9566H42.8854L42.2462 27.7916H39.3594L43.2522 12.1083H46.2331L50.1174 27.7916H47.2307L46.5948 24.9566ZM46.0312 22.3383L45.3936 19.4216C45.1682 18.345 44.9193 16.6216 44.7594 15.5666H44.6905C44.5542 16.6166 44.3036 18.345 44.0798 19.42L43.449 22.3366H46.0312V22.3383Z" fill="#63DC3E"/>
<path d="M105.904 24.5733H101.31L100.472 27.98H98.5256L102.595 12.2966H104.61L108.685 27.98H106.738L105.904 24.5733ZM105.497 22.87L104.207 17.5616C103.979 16.5909 103.79 15.6118 103.64 14.6266H103.572C103.423 15.6116 103.233 16.5902 103.004 17.56L101.713 22.87H105.497ZM110.364 23.455V16.8216C110.364 13.73 112.13 12.0033 114.778 12.0033C117.493 12.0033 119.168 13.66 119.328 16.6783H117.491C117.355 14.6616 116.404 13.72 114.751 13.72C113.235 13.72 112.217 14.7033 112.217 16.81V23.455C112.217 25.5316 113.279 26.525 114.82 26.525C116.494 26.525 117.422 25.5616 117.604 23.59H119.439C119.258 26.5683 117.584 28.25 114.82 28.25C112.15 28.25 110.362 26.545 110.362 23.455H110.364ZM127.837 24.5733H123.241L122.403 27.98H120.457L124.531 12.2966H126.547L130.621 27.98H128.675L127.834 24.5733H127.837ZM127.43 22.87L126.14 17.5616C125.913 16.5909 125.723 15.6118 125.573 14.6266H125.505C125.356 15.6116 125.166 16.5902 124.937 17.56L123.647 22.87H127.432H127.43ZM133.032 12.2966H136.79C139.823 12.2966 141.589 14.0433 141.589 17.0466V23.23C141.589 26.2333 139.801 27.9816 136.812 27.9816H133.032V12.2966ZM136.82 26.2333C138.676 26.2333 139.741 25.195 139.741 23.1633V17.0916C139.741 15.075 138.693 14.0433 136.82 14.0433H134.899V26.2333H136.822H136.82ZM152.869 26.255V27.98H145.04V12.2966H152.621V14H146.893V19.1766H152.213V20.8566H146.893V26.2566L152.869 26.255ZM167.831 12.2966V27.98H165.994V20.78C166.017 19.075 166.061 17.5533 166.152 16.03L166.059 16.005C165.629 17.1916 165.041 18.65 164.485 20.1266L162.831 24.36H160.996L159.32 20.1266C158.779 18.65 158.166 17.1933 157.747 16.005L157.635 16.0283C157.725 17.5533 157.791 19.075 157.791 20.7783V27.9716H155.954V12.2966H157.902L160.641 18.86C161.028 19.8 161.591 21.345 161.84 22.1533H161.931C162.193 21.3483 162.769 19.8 163.154 18.86L165.894 12.2966H167.829H167.831ZM174.055 22.5966L170.161 12.2966H172.107L174.121 17.9216C174.383 18.6616 174.708 19.5583 174.98 20.3633H175.014C175.276 19.5566 175.603 18.6383 175.875 17.8783L177.89 12.2983H179.837L175.909 22.5983V27.9733H174.055V22.5966Z" fill="#63DC3E"/>
<path d="M68.4808 22.945H64.9212V15.2666L68.4808 14.6333V22.945ZM73.5931 22.945H70.0318V13.5866L73.5931 12.92V22.945ZM75.1408 12.0633H78.7021V22.9466H75.1408V12.0633ZM83.8161 22.945H80.2548V13.5783L83.8161 14.2116V22.945ZM75.1458 24.4883H83.8128V28.0133H75.1458V24.4883Z" fill="#63DC3E"/>
<path d="M74.3669 39.82C63.3281 39.82 54.3819 30.9633 54.3819 20.0366C54.3819 9.10996 63.3281 0.253296 74.3669 0.253296C85.4041 0.253296 94.352 9.10996 94.352 20.0366C94.3419 30.9583 85.4008 39.81 74.3669 39.82ZM74.3669 4.14996C65.5015 4.14996 58.3167 11.2633 58.3167 20.0383C58.3167 28.8133 65.5032 35.9266 74.3653 35.9266C83.2307 35.9266 90.4172 28.8133 90.4172 20.0383C90.4038 11.2716 83.2256 4.16663 74.3669 4.15496V4.14996Z" fill="#63DC3E"/>
</svg>
